ffmpeg version 3.4.8-0ubuntu0.2 Copyright (c) 2000-2020 the FFmpeg developers
  built with gcc 7 (Ubuntu 7.5.0-3ubuntu1~18.04)
  configuration: --prefix=/usr --extra-version=0ubuntu0.2 --toolchain=hardened --libdir=/usr/lib/x86_64-linux-gnu --incdir=/usr/include/x86_64-linux-gnu --enable-gpl --disable-stripping --enable-avresample --enable-avisynth --enable-gnutls --enable-ladspa --enable-libass --enable-libbluray --enable-libbs2b --enable-libcaca --enable-libcdio --enable-libflite --enable-libfontconfig --enable-libfreetype --enable-libfribidi --enable-libgme --enable-libgsm --enable-libmp3lame --enable-libmysofa --enable-libopenjpeg --enable-libopenmpt --enable-libopus --enable-libpulse --enable-librubberband --enable-librsvg --enable-libshine --enable-libsnappy --enable-libsoxr --enable-libspeex --enable-libssh --enable-libtheora --enable-libtwolame --enable-libvorbis --enable-libvpx --enable-libwavpack --enable-libwebp --enable-libx265 --enable-libxml2 --enable-libxvid --enable-libzmq --enable-libzvbi --enable-omx --enable-openal --enable-opengl --enable-sdl2 --enable-libdc1394 --enable-libdrm --enable-libiec61883 --enable-chromaprint --enable-frei0r --enable-libopencv --enable-libx264 --enable-shared
  libavutil      55. 78.100 / 55. 78.100
  libavcodec     57.107.100 / 57.107.100
  libavformat    57. 83.100 / 57. 83.100
  libavdevice    57. 10.100 / 57. 10.100
  libavfilter     6.107.100 /  6.107.100
  libavresample   3.  7.  0 /  3.  7.  0
  libswscale      4.  8.100 /  4.  8.100
  libswresample   2.  9.100 /  2.  9.100
  libpostproc    54.  7.100 / 54.  7.100
[rawvideo @ 0x55cdb0c66a20] Estimating duration from bitrate, this may be inaccurate
Input #0, rawvideo, from '../../SVC-Encoder-20220109T061506Z-001/SVC-Encoder/Dataset/RollerCoaster/6f_2x2/tile_yuv/f3_t3_480x480.yuv':
  Duration: 00:00:10.00, start: 0.000000, bitrate: 82944 kb/s
    Stream #0:0: Video: rawvideo (I420 / 0x30323449), yuv420p, 480x480, 82944 kb/s, 30 tbr, 30 tbn, 30 tbc
Stream mapping:
  Stream #0:0 -> #0:0 (rawvideo (native) -> h264 (libx264))
Press [q] to stop, [?] for help
[libx264 @ 0x55cdb0c73c60] using cpu capabilities: MMX2 SSE2Fast LZCNT SSSE3 SSE4.2 AVX
[libx264 @ 0x55cdb0c73c60] profile High, level 3.0
Output #0, rawvideo, to 'RollerCoaster_f3_t3_480x480_x264_QP_32.h264':
  Metadata:
    encoder         : Lavf57.83.100
    Stream #0:0: Video: h264 (libx264), yuv420p, 480x480, q=-1--1, 30 fps, 30 tbn, 30 tbc
    Metadata:
      encoder         : Lavc57.107.100 libx264
    Side data:
      cpb: bitrate max/min/avg: 0/0/0 buffer size: 0 vbv_delay: -1
frame=  156 fps=0.0 q=38.0 PSNR=Y:nan U:nan V:nan *:nan size=      62kB time=00:00:03.76 bitrate= 135.8kbits/s speed=7.46x    frame=  288 fps=286 q=38.0 PSNR=Y:nan U:nan V:nan *:nan size=     122kB time=00:00:08.16 bitrate= 122.2kbits/s speed=8.12x    frame=  300 fps=250 q=38.0 LPSNR=Y:inf U:inf V:inf *:inf size=     153kB time=00:00:09.93 bitrate= 126.6kbits/s speed=8.27x    
video:153kB audio:0kB subtitle:0kB other streams:0kB global headers:0kB muxing overhead: 0.000000%
[libx264 @ 0x55cdb0c73c60] frame I:2     Avg QP:30.67  size:  9098  PSNR Mean Y:41.61 U:43.89 V:42.79 Avg:42.11 Global:42.05
[libx264 @ 0x55cdb0c73c60] frame P:76    Avg QP:31.80  size:   973  PSNR Mean Y:40.31 U:43.85 V:42.75 Avg:41.09 Global:41.07
[libx264 @ 0x55cdb0c73c60] frame B:222   Avg QP:37.47  size:   293  PSNR Mean Y:39.67 U:43.60 V:42.60 Avg:40.53 Global:40.52
[libx264 @ 0x55cdb0c73c60] consecutive B-frames:  1.3%  0.0%  0.0% 98.7%
[libx264 @ 0x55cdb0c73c60] mb I  I16..4: 34.7% 46.9% 18.4%
[libx264 @ 0x55cdb0c73c60] mb P  I16..4:  2.0%  2.7%  0.1%  P16..4: 24.7%  4.4%  1.1%  0.0%  0.0%    skip:65.0%
[libx264 @ 0x55cdb0c73c60] mb B  I16..4:  0.1%  0.2%  0.0%  B16..8: 19.8%  0.7%  0.0%  direct: 0.1%  skip:79.1%  L0:48.3% L1:51.1% BI: 0.6%
[libx264 @ 0x55cdb0c73c60] 8x8 transform intra:53.8% inter:86.9%
[libx264 @ 0x55cdb0c73c60] coded y,uvDC,uvAC intra: 29.6% 52.6% 10.1% inter: 1.6% 2.0% 0.0%
[libx264 @ 0x55cdb0c73c60] i16 v,h,dc,p: 39% 32% 14% 15%
[libx264 @ 0x55cdb0c73c60] i8 v,h,dc,ddl,ddr,vr,hd,vl,hu: 24% 21% 26%  6%  3%  2%  4%  4% 11%
[libx264 @ 0x55cdb0c73c60] i4 v,h,dc,ddl,ddr,vr,hd,vl,hu: 21% 26% 25%  6%  3%  2%  4%  2% 11%
[libx264 @ 0x55cdb0c73c60] i8c dc,h,v,p: 51% 23% 12% 15%
[libx264 @ 0x55cdb0c73c60] Weighted P-Frames: Y:0.0% UV:0.0%
[libx264 @ 0x55cdb0c73c60] ref P L0: 48.5% 13.2% 23.5% 14.8%
[libx264 @ 0x55cdb0c73c60] ref B L0: 62.4% 27.8%  9.7%
[libx264 @ 0x55cdb0c73c60] ref B L1: 74.6% 25.4%
[libx264 @ 0x55cdb0c73c60] PSNR Mean Y:39.841 U:43.667 V:42.635 Avg:40.682 Global:40.664 kb/s:125.73
